<svg xmlns="http://www.w3.org/2000/svg" viewBox="0 0 135 135"><defs><style>.cls-1{fill:#14503f;}.cls-2{fill:#bab9ba;}.cls-3{fill:#006f46;}</style></defs><title>Asset 62</title><g id="Layer_2" data-name="Layer 2"><g id="Layer_1-2" data-name="Layer 1"><circle class="cls-1" cx="67.5" cy="67.5" r="67.5"/><path class="cls-2" d="M44.75,47.22h15.5a0,0,0,0,1,0,0v9.56a15.5,15.5,0,0,1-15.5,15.5h0a0,0,0,0,1,0,0V47.22A0,0,0,0,1,44.75,47.22Z" transform="translate(-7.25 112.25) rotate(-90)"/><path class="cls-2" d="M44.75,62.72h0a15.5,15.5,0,0,1,15.5,15.5v9.56a0,0,0,0,1,0,0H44.75a0,0,0,0,1,0,0V62.72A0,0,0,0,1,44.75,62.72Z" transform="translate(127.75 22.75) rotate(90)"/><path class="cls-3" d="M8,55.93H35a0,0,0,0,1,0,0V66.78A16.22,16.22,0,0,1,18.83,83H8a0,0,0,0,1,0,0V55.93A0,0,0,0,1,8,55.93Z" transform="translate(90.97 47.95) rotate(90)"/><path class="cls-3" d="M74.74,47.22h15.5a0,0,0,0,1,0,0v9.56a15.5,15.5,0,0,1-15.5,15.5h0a0,0,0,0,1,0,0V47.22A0,0,0,0,1,74.74,47.22Z" transform="translate(22.74 142.24) rotate(-90)"/><path class="cls-3" d="M74.73,62.72h0a15.5,15.5,0,0,1,15.5,15.5v9.56a0,0,0,0,1,0,0H74.73a0,0,0,0,1,0,0V62.72A0,0,0,0,1,74.73,62.72Z" transform="translate(157.73 -7.23) rotate(90)"/><path class="cls-2" d="M100,55.93h10.86A16.22,16.22,0,0,1,127,72.14V83a0,0,0,0,1,0,0H100a0,0,0,0,1,0,0V55.93A0,0,0,0,1,100,55.93Z" transform="translate(44.03 182.95) rotate(-90)"/></g></g></svg>