<svg xmlns="http://www.w3.org/2000/svg" viewBox="0 0 145 145"><defs><style>.cls-1{fill:#263238;}.cls-2{fill:#007147;}.cls-3{fill:#007046;}.cls-4{fill:#006f46;}.cls-5{fill:none;}</style></defs><title>Asset 39</title><g id="Layer_2" data-name="Layer 2"><g id="Layer_1-2" data-name="Layer 1"><path class="cls-1" d="M7.3,84.06H60a0,0,0,0,1,0,0V120.5a16.22,16.22,0,0,1-16.22,16.22H7.3a0,0,0,0,1,0,0V84.06a0,0,0,0,1,0,0Z"/><path class="cls-2" d="M7.3,18.86H60a0,0,0,0,1,0,0V55.3A16.22,16.22,0,0,1,43.74,71.52H7.3a0,0,0,0,1,0,0V18.86A0,0,0,0,1,7.3,18.86Z"/><path class="cls-3" d="M72.5,84.06h52.66a0,0,0,0,1,0,0V120.5a16.22,16.22,0,0,1-16.22,16.22H72.5a0,0,0,0,1,0,0V84.06A0,0,0,0,1,72.5,84.06Z"/><path class="cls-4" d="M70.35,46.38H97.42a0,0,0,0,1,0,0V57.24A16.22,16.22,0,0,1,81.21,73.46H70.35a0,0,0,0,1,0,0V46.38A0,0,0,0,1,70.35,46.38Z" transform="translate(41.2 -33.92) rotate(30)"/><path class="cls-1" d="M111.13,33.23H138.2a0,0,0,0,1,0,0V44.08A16.22,16.22,0,0,1,122,60.3H111.13a0,0,0,0,1,0,0V33.23a0,0,0,0,1,0,0Z" transform="translate(-5.72 73.74) rotate(-32.25)"/><path class="cls-2" d="M82.85,6.92h27.07a0,0,0,0,1,0,0V17.78A16.22,16.22,0,0,1,93.7,34H82.85a0,0,0,0,1,0,0V6.92a0,0,0,0,1,0,0Z" transform="matrix(0.87, -0.5, 0.5, 0.87, 2.68, 50.93)"/><rect class="cls-5" width="145" height="145"/></g></g></svg>